FILE "CyberSled (Europe) (Track 01).bin" BINARY
  TRACK 01 MODE2/2352
    INDEX 01 00:00:00
  TRACK 02 AUDIO
    INDEX 00 10:28:14
    INDEX 01 10:30:14
  TRACK 03 AUDIO
    INDEX 00 10:34:53
    INDEX 01 10:36:53
  TRACK 04 AUDIO
    INDEX 00 10:53:09
    INDEX 01 10:55:09
  TRACK 05 AUDIO
    INDEX 00 10:59:29
    INDEX 01 11:01:29
  TRACK 06 AUDIO
    INDEX 00 11:05:64
    INDEX 01 11:07:64
  TRACK 07 AUDIO
    INDEX 00 11:12:11
    INDEX 01 11:14:11
  TRACK 08 AUDIO
    INDEX 00 11:18:41
    INDEX 01 11:20:41
  TRACK 09 AUDIO
    INDEX 00 11:24:54
    INDEX 01 11:26:54
  TRACK 10 AUDIO
    INDEX 00 11:31:06
    INDEX 01 11:33:06
  TRACK 11 AUDIO
    INDEX 00 11:37:36
    INDEX 01 11:39:36
  TRACK 12 AUDIO
    INDEX 00 11:43:72
    INDEX 01 11:45:72
  TRACK 13 AUDIO
    INDEX 00 11:50:10
    INDEX 01 11:52:10
  TRACK 14 AUDIO
    INDEX 00 11:56:35
    INDEX 01 11:58:35
  TRACK 15 AUDIO
    INDEX 00 12:02:60
    INDEX 01 12:04:60
  TRACK 16 AUDIO
    INDEX 00 12:09:18
    INDEX 01 12:11:18
  TRACK 17 AUDIO
    INDEX 00 12:15:35
    INDEX 01 12:17:35
  TRACK 18 AUDIO
    INDEX 00 12:21:67
    INDEX 01 12:23:67
  TRACK 19 AUDIO
    INDEX 00 12:28:19
    INDEX 01 12:30:19
  TRACK 20 AUDIO
    INDEX 00 12:34:60
    INDEX 01 12:36:60
  TRACK 21 AUDIO
    INDEX 00 12:41:07
    INDEX 01 12:43:07
  TRACK 22 AUDIO
    INDEX 00 12:47:39
    INDEX 01 12:49:39
  TRACK 23 AUDIO
    INDEX 00 12:53:63
    INDEX 01 12:55:63
  TRACK 24 AUDIO
    INDEX 00 13:00:23
    INDEX 01 13:02:23
  TRACK 25 AUDIO
    INDEX 00 13:06:48
    INDEX 01 13:08:48
  TRACK 26 AUDIO
    INDEX 00 13:13:06
    INDEX 01 13:15:06
  TRACK 27 AUDIO
    INDEX 00 13:19:27
    INDEX 01 13:21:27
  TRACK 28 AUDIO
    INDEX 00 13:25:67
    INDEX 01 13:27:67
  TRACK 29 AUDIO
    INDEX 00 13:36:56
    INDEX 01 13:38:56
  TRACK 30 AUDIO
    INDEX 00 13:47:14
    INDEX 01 13:49:14
  TRACK 31 AUDIO
    INDEX 00 13:57:51
    INDEX 01 13:59:51
  TRACK 32 AUDIO
    INDEX 00 14:08:16
    INDEX 01 14:10:16
  TRACK 33 AUDIO
    INDEX 00 14:18:54
    INDEX 01 14:20:54
  TRACK 34 AUDIO
    INDEX 00 14:29:46
    INDEX 01 14:31:46
  TRACK 35 AUDIO
    INDEX 00 14:40:17
    INDEX 01 14:42:17
  TRACK 36 AUDIO
    INDEX 00 14:50:58
    INDEX 01 14:52:58
  TRACK 37 AUDIO
    INDEX 00 15:01:59
    INDEX 01 15:03:59
  TRACK 38 AUDIO
    INDEX 00 15:12:56
    INDEX 01 15:14:56
  TRACK 39 AUDIO
    INDEX 00 15:23:29
    INDEX 01 15:25:29
  TRACK 40 AUDIO
    INDEX 00 15:34:21
    INDEX 01 15:36:21
  TRACK 41 AUDIO
    INDEX 00 19:33:30
    INDEX 01 19:35:30
  TRACK 42 AUDIO
    INDEX 00 23:29:41
    INDEX 01 23:31:41
  TRACK 43 AUDIO
    INDEX 00 26:47:24
    INDEX 01 26:49:24
  TRACK 44 AUDIO
    INDEX 00 31:32:70
    INDEX 01 31:34:70
  TRACK 45 AUDIO
    INDEX 00 35:14:14
    INDEX 01 35:16:14
  TRACK 46 AUDIO
    INDEX 00 38:04:11
    INDEX 01 38:06:11
  TRACK 47 AUDIO
    INDEX 00 42:13:60
    INDEX 01 42:15:60
  TRACK 48 AUDIO
    INDEX 00 45:50:56
    INDEX 01 45:52:56
REM LEADOUT 49:20:55
